<svg xmlns="http://www.w3.org/2000/svg" width="21.602" height="21.602" viewBox="0 0 21.602 21.602">
  <path id="instagram" d="M14.4,10.8a3.6,3.6,0,0,0-3.6-3.6,3.6,3.6,0,0,0-3.6,3.6,3.6,3.6,0,0,0,3.6,3.6,3.6,3.6,0,0,0,3.6-3.6Zm1.941,0A5.522,5.522,0,0,1,10.8,16.342,5.522,5.522,0,0,1,5.26,10.8,5.522,5.522,0,0,1,10.8,5.26,5.522,5.522,0,0,1,16.342,10.8Zm1.519-5.766a1.294,1.294,0,1,1-2.208-.914,1.294,1.294,0,0,1,2.208.914ZM10.8,1.941,9.725,1.933q-.978-.007-1.484,0t-1.357.042a11.091,11.091,0,0,0-1.449.14,5.589,5.589,0,0,0-1.005.261A3.678,3.678,0,0,0,2.377,4.43a5.644,5.644,0,0,0-.26,1.006,11.091,11.091,0,0,0-.14,1.449q-.035.851-.042,1.357t0,1.484q.007.978.007,1.076t-.007,1.076q-.007.978,0,1.484t.042,1.357a11.091,11.091,0,0,0,.14,1.449,5.61,5.61,0,0,0,.26,1A3.678,3.678,0,0,0,4.43,19.226a5.644,5.644,0,0,0,1.006.26,11.091,11.091,0,0,0,1.449.14q.851.035,1.357.042t1.484,0l1.076-.007,1.076.007q.978.007,1.484,0t1.357-.042a11.09,11.09,0,0,0,1.449-.14,5.644,5.644,0,0,0,1.006-.26,3.678,3.678,0,0,0,2.053-2.053,5.644,5.644,0,0,0,.26-1.006,11.091,11.091,0,0,0,.14-1.449q.035-.851.042-1.357t0-1.484q-.007-.978-.007-1.076t.007-1.076q.007-.978,0-1.484t-.042-1.357a11.09,11.09,0,0,0-.14-1.449,5.536,5.536,0,0,0-.262-1,3.678,3.678,0,0,0-2.053-2.053,5.644,5.644,0,0,0-1.006-.26,11.091,11.091,0,0,0-1.449-.14q-.851-.035-1.357-.042t-1.484,0L10.8,1.941ZM21.6,10.8q0,3.221-.07,4.458a6.6,6.6,0,0,1-1.744,4.529,6.6,6.6,0,0,1-4.529,1.744q-1.238.07-4.458.07t-4.458-.07a6.6,6.6,0,0,1-4.529-1.744A6.6,6.6,0,0,1,.07,15.26Q0,14.022,0,10.8T.07,6.343A6.6,6.6,0,0,1,1.814,1.814,6.6,6.6,0,0,1,6.343.07Q7.581,0,10.8,0T15.26.07a6.6,6.6,0,0,1,4.529,1.744,6.6,6.6,0,0,1,1.744,4.529Q21.6,7.581,21.6,10.8Z" fill="#fff"/>
</svg>
