<svg xmlns="http://www.w3.org/2000/svg" width="299.319" height="42.585" viewBox="0 0 299.319 42.585">
  <path id="Tracé_2" data-name="Tracé 2" d="M24.786-12.648,29.937,0h2.5L16.371-39.729.255,0h2.5L7.905-12.648Zm-.918-2.3H8.823l7.548-18.564Zm15.045-8.619H36.618V0h2.295V-11.628a24.17,24.17,0,0,1,.28-3.8,11.609,11.609,0,0,1,.995-3.238A5.7,5.7,0,0,1,42.3-21.038,6.386,6.386,0,0,1,45.8-21.93a6.53,6.53,0,0,1,3.009.587,4.064,4.064,0,0,1,1.708,1.632,6.575,6.575,0,0,1,.765,2.346,23.514,23.514,0,0,1,.178,3.136V0h2.3V-14.229q0-4.9-1.708-7.369T46-24.072a7.9,7.9,0,0,0-4.131,1.1,7.484,7.484,0,0,0-2.856,3.086h-.1ZM64.158-21.42h4.131v-2.142H64.158v-8.415H61.863v8.415h-2.6v2.142h2.6V0h2.295Zm18.054-2.652a11.837,11.837,0,0,0-4.743.969,12.509,12.509,0,0,0-3.927,2.652A12.089,12.089,0,0,0,70.915-16.5a12.3,12.3,0,0,0-.943,4.769,11.986,11.986,0,0,0,.943,4.692,12.16,12.16,0,0,0,2.626,3.927A12.509,12.509,0,0,0,77.469-.459,11.837,11.837,0,0,0,82.212.51a12.73,12.73,0,0,0,4.819-.918,12.041,12.041,0,0,0,3.978-2.6,11.962,11.962,0,0,0,2.652-3.927,12.372,12.372,0,0,0,.943-4.845,12.372,12.372,0,0,0-.943-4.845,11.962,11.962,0,0,0-2.652-3.927,12.041,12.041,0,0,0-3.978-2.6A12.73,12.73,0,0,0,82.212-24.072Zm-.153,2.142a10.621,10.621,0,0,1,4.029.765,10.009,10.009,0,0,1,3.289,2.142,9.54,9.54,0,0,1,2.168,3.264,10.621,10.621,0,0,1,.765,4.029,10.3,10.3,0,0,1-.765,3.953,9.423,9.423,0,0,1-2.193,3.239A10.374,10.374,0,0,1,86.063-2.4a10.429,10.429,0,0,1-4,.765,9.263,9.263,0,0,1-3.851-.816,9.822,9.822,0,0,1-3.136-2.219,10.229,10.229,0,0,1-2.065-3.239,10.144,10.144,0,0,1-.74-3.825,10.339,10.339,0,0,1,.74-3.85,10.463,10.463,0,0,1,2.065-3.29,9.636,9.636,0,0,1,3.136-2.244A9.263,9.263,0,0,1,82.059-21.93Zm21.267-1.632h-2.295V0h2.295ZM102.2-33.507a2.015,2.015,0,0,0-1.479.612,2.015,2.015,0,0,0-.612,1.479,2.015,2.015,0,0,0,.612,1.479,2.015,2.015,0,0,0,1.479.612,2.015,2.015,0,0,0,1.479-.612,2.015,2.015,0,0,0,.612-1.479,2.015,2.015,0,0,0-.612-1.479A2.015,2.015,0,0,0,102.2-33.507Zm12.189,9.945H112.1V0h2.295V-11.628a24.169,24.169,0,0,1,.281-3.8,11.609,11.609,0,0,1,.994-3.238,5.7,5.7,0,0,1,2.117-2.372,6.386,6.386,0,0,1,3.493-.892,6.53,6.53,0,0,1,3.009.587A4.064,4.064,0,0,1,126-19.712a6.575,6.575,0,0,1,.765,2.346,23.515,23.515,0,0,1,.178,3.136V0h2.295V-14.229q0-4.9-1.708-7.369t-6.044-2.474a7.9,7.9,0,0,0-4.131,1.1,7.484,7.484,0,0,0-2.856,3.086h-.1Zm43.146,11.985a14.988,14.988,0,0,0-.765-4.819,12.013,12.013,0,0,0-2.244-4,10.3,10.3,0,0,0-3.6-2.7,11.2,11.2,0,0,0-4.717-.969,10.954,10.954,0,0,0-4.615.969,10.967,10.967,0,0,0-3.646,2.677,12.135,12.135,0,0,0-2.346,3.9,13.346,13.346,0,0,0-.816,4.692,14.17,14.17,0,0,0,.79,4.743,11.669,11.669,0,0,0,2.32,3.952A10.967,10.967,0,0,0,141.55-.459a11.077,11.077,0,0,0,4.667.969,11.829,11.829,0,0,0,6.222-1.658,11.545,11.545,0,0,0,4.335-4.718l-1.938-1.122a10.878,10.878,0,0,1-3.468,3.9,8.429,8.429,0,0,1-4.845,1.453,9.071,9.071,0,0,1-6.757-2.729,9.859,9.859,0,0,1-2.678-7.216Zm-20.451-2.142a8.647,8.647,0,0,1,.918-3.137,9.078,9.078,0,0,1,2.04-2.652,9.612,9.612,0,0,1,2.856-1.785,8.915,8.915,0,0,1,3.366-.638,8.782,8.782,0,0,1,3.315.638,8.45,8.45,0,0,1,2.779,1.81A9.857,9.857,0,0,1,154.3-16.83a9.559,9.559,0,0,1,.943,3.111Zm61.863-4.794v2.3h13.77a15.033,15.033,0,0,1-1.2,5.712,12.8,12.8,0,0,1-3.493,4.488,19.573,19.573,0,0,1-5.381,3.111,16.507,16.507,0,0,1-5.941,1.122A17.005,17.005,0,0,1,190-3.137a17.337,17.337,0,0,1-5.61-3.8,17.919,17.919,0,0,1-3.774-5.61,16.822,16.822,0,0,1-1.352-6.681,16.31,16.31,0,0,1,1.377-6.579,18.07,18.07,0,0,1,3.825-5.61,18.351,18.351,0,0,1,5.635-3.85,16.233,16.233,0,0,1,6.6-1.4,16.773,16.773,0,0,1,8.415,2.167,18.767,18.767,0,0,1,6.426,6.095l1.989-1.581a22.608,22.608,0,0,0-7.344-6.63,18.929,18.929,0,0,0-9.333-2.346,19.826,19.826,0,0,0-7.7,1.53,20,20,0,0,0-6.451,4.284,20,20,0,0,0-4.335,6.375,19.3,19.3,0,0,0-1.555,7.7,18.449,18.449,0,0,0,1.555,7.446,20.071,20.071,0,0,0,4.31,6.3,20.509,20.509,0,0,0,6.35,4.284A18.75,18.75,0,0,0,196.554.51a20.44,20.44,0,0,0,8.007-1.632,18.512,18.512,0,0,0,6.579-4.59A13.7,13.7,0,0,0,214.3-11.22a26.625,26.625,0,0,0,.867-7.293Zm36.261-5.049v13.311a25.6,25.6,0,0,1-.2,3.494,7.779,7.779,0,0,1-.816,2.6,4.508,4.508,0,0,1-1.861,1.836,6.8,6.8,0,0,1-3.29.688,6.8,6.8,0,0,1-3.289-.688,4.508,4.508,0,0,1-1.862-1.836,7.779,7.779,0,0,1-.816-2.6,25.6,25.6,0,0,1-.2-3.494V-23.562h-2.295V-9.435a24.994,24.994,0,0,0,.255,4A6.588,6.588,0,0,0,222-2.652a7.187,7.187,0,0,0,3.06,2.371,10.192,10.192,0,0,0,3.978.79,10.192,10.192,0,0,0,3.978-.79,7.187,7.187,0,0,0,3.06-2.371,6.588,6.588,0,0,0,1.173-2.78,24.994,24.994,0,0,0,.255-4V-23.562Zm12.954,0h-2.295V0h2.295Zm-1.122-9.945a2.015,2.015,0,0,0-1.479.612,2.015,2.015,0,0,0-.612,1.479,2.015,2.015,0,0,0,.612,1.479,2.015,2.015,0,0,0,1.479.612,2.015,2.015,0,0,0,1.479-.612,2.015,2.015,0,0,0,.612-1.479,2.015,2.015,0,0,0-.612-1.479A2.015,2.015,0,0,0,247.044-33.507Zm12.189-8.568h-2.3V0h2.3Zm10.149,0h-2.3V0h2.3Zm17.8,18a11.837,11.837,0,0,0-4.743.969,12.509,12.509,0,0,0-3.927,2.652,12.09,12.09,0,0,0-2.626,3.952,12.3,12.3,0,0,0-.944,4.769,11.986,11.986,0,0,0,.944,4.692,12.16,12.16,0,0,0,2.626,3.927,12.509,12.509,0,0,0,3.927,2.652,11.837,11.837,0,0,0,4.743.969A12.73,12.73,0,0,0,292-.408a12.041,12.041,0,0,0,3.978-2.6,11.962,11.962,0,0,0,2.652-3.927,12.372,12.372,0,0,0,.943-4.845,12.372,12.372,0,0,0-.943-4.845,11.962,11.962,0,0,0-2.652-3.927,12.041,12.041,0,0,0-3.978-2.6A12.73,12.73,0,0,0,287.181-24.072Zm-.153,2.142a10.621,10.621,0,0,1,4.029.765,10.009,10.009,0,0,1,3.29,2.142,9.54,9.54,0,0,1,2.167,3.264,10.621,10.621,0,0,1,.765,4.029,10.3,10.3,0,0,1-.765,3.953,9.422,9.422,0,0,1-2.193,3.239A10.374,10.374,0,0,1,291.031-2.4a10.429,10.429,0,0,1-4,.765,9.263,9.263,0,0,1-3.85-.816,9.822,9.822,0,0,1-3.137-2.219,10.23,10.23,0,0,1-2.065-3.239,10.144,10.144,0,0,1-.74-3.825,10.339,10.339,0,0,1,.74-3.85,10.464,10.464,0,0,1,2.065-3.29,9.636,9.636,0,0,1,3.137-2.244A9.263,9.263,0,0,1,287.028-21.93Z" transform="translate(-0.255 42.075)" fill="#fff"/>
</svg>
