<svg xmlns="http://www.w3.org/2000/svg" width="2052.291" height="318.295" viewBox="0 0 2052.291 318.295">
  <path id="Tracé_3" data-name="Tracé 3" d="M390.328,3649.252a174.321,174.321,0,0,1-22.095-1.411,185.017,185.017,0,0,1-27.288-5.655,211.921,211.921,0,0,1-28.152-10.334,258.021,258.021,0,0,1-29.041-15.39,328.209,328.209,0,0,1-29.964-20.821c-13.658-10.617-27.334-20.507-40.647-29.4-12.781-8.533-25.571-16.371-38.013-23.3-11.913-6.631-23.825-12.6-35.406-17.745-11.054-4.911-22.1-9.2-32.825-12.744a294.9,294.9,0,0,0-30.273-8.293,248.79,248.79,0,0,0-27.754-4.393,216.392,216.392,0,0,0-25.27-1.042,194.308,194.308,0,0,0-22.822,1.761,174.107,174.107,0,0,0-44.834,12.347,162.18,162.18,0,0,0-31.534,17.895c-16.452,11.983-24.573,22.868-24.653,22.976l-3.218-2.375a81.013,81.013,0,0,1,6.378-7.29A147.455,147.455,0,0,1-77.944,3527.5a166.2,166.2,0,0,1,32.313-18.338A178.1,178.1,0,0,1,.232,3496.531a198.276,198.276,0,0,1,23.294-1.8,220.464,220.464,0,0,1,25.739,1.061,252.82,252.82,0,0,1,28.2,4.464,298.947,298.947,0,0,1,30.686,8.405c10.852,3.587,22.019,7.923,33.193,12.886,11.689,5.192,23.71,11.217,35.727,17.906,12.536,6.977,25.419,14.872,38.289,23.464,13.393,8.941,27.147,18.888,40.881,29.564a324.207,324.207,0,0,0,29.6,20.567,254.041,254.041,0,0,0,28.588,15.151,207.913,207.913,0,0,0,27.618,10.139,181.008,181.008,0,0,0,26.7,5.533,169.73,169.73,0,0,0,25.831,1.325A172.626,172.626,0,0,0,419.6,3642.7a188.656,188.656,0,0,0,24.275-5.932,218.416,218.416,0,0,0,23.57-8.995c7.529-3.371,15.234-7.3,22.9-11.681,7.292-4.165,14.784-8.871,22.268-13.986a467.429,467.429,0,0,0,42.755-33.347c27.777-24.124,53.965-51.163,79.291-77.312,26.664-27.53,51.849-53.534,76.442-73.619,13.219-10.8,25.177-19,36.556-25.068a127.108,127.108,0,0,1,18.076-8,90.994,90.994,0,0,1,18.026-4.333,96.442,96.442,0,0,1,18.753-.532,119.765,119.765,0,0,1,19.064,2.909c12.086,2.814,24.908,7.5,39.2,14.325,26.615,12.711,54.555,31.087,84.137,50.542,26.918,17.7,54.753,36.01,84.546,52.107a471.335,471.335,0,0,0,45.955,21.932c8.063,3.3,16.136,6.277,24,8.862,8.274,2.721,16.589,5.094,24.712,7.052,8.5,2.049,17.066,3.71,25.458,4.938,8.742,1.279,17.569,2.126,26.238,2.521a256.649,256.649,0,0,0,27.052-.2,259.242,259.242,0,0,0,27.9-3.23,273.653,273.653,0,0,0,28.8-6.569,301.631,301.631,0,0,0,29.725-10.22c10.158-4.087,20.483-8.86,30.689-14.187,10.48-5.47,21.14-11.684,31.684-18.469,33.776-21.733,66.645-41.5,97.695-58.751,15.8-8.781,31.487-17.1,46.612-24.74,15.295-7.721,30.46-14.96,45.075-21.518,14.773-6.628,29.41-12.75,43.5-18.2,14.241-5.5,28.337-10.473,41.9-14.773,13.7-4.344,27.242-8.129,40.257-11.249,13.144-3.151,26.125-5.716,38.583-7.623,12.579-1.925,24.985-3.234,36.875-3.892a318.961,318.961,0,0,1,35.13-.054,270.912,270.912,0,0,1,33.344,3.892,239.54,239.54,0,0,1,31.513,7.945,220.358,220.358,0,0,1,57.318,28.455,234.092,234.092,0,0,1,25.7,20.695,262.572,262.572,0,0,1,23.661,25.121l-3.082,2.549a258.541,258.541,0,0,0-23.3-24.737,230.073,230.073,0,0,0-25.257-20.341,216.358,216.358,0,0,0-56.284-27.941,235.527,235.527,0,0,0-30.985-7.811,266.909,266.909,0,0,0-32.85-3.833,314.972,314.972,0,0,0-34.688.054c-11.761.65-24.039,1.946-36.491,3.852-12.349,1.89-25.219,4.433-38.256,7.559-12.922,3.1-26.374,6.857-39.981,11.172-13.482,4.275-27.5,9.218-41.664,14.691-14.028,5.42-28.6,11.514-43.307,18.114-14.56,6.532-29.67,13.746-44.91,21.439-15.078,7.612-30.714,15.91-46.472,24.666-30.975,17.21-63.77,36.932-97.473,58.618-10.646,6.85-21.411,13.125-32,18.651-10.321,5.387-20.767,10.216-31.047,14.352a305.56,305.56,0,0,1-30.121,10.356,277.7,277.7,0,0,1-29.219,6.665,263.143,263.143,0,0,1-28.338,3.28,260.467,260.467,0,0,1-27.476.2c-8.8-.4-17.762-1.26-26.635-2.559-8.512-1.245-17.2-2.929-25.817-5.007-8.228-1.983-16.647-4.386-25.024-7.141-7.948-2.614-16.11-5.628-24.259-8.958a475.385,475.385,0,0,1-46.343-22.116c-29.946-16.179-57.853-34.534-84.843-52.284-29.464-19.378-57.294-37.681-83.663-50.275-14.026-6.7-26.581-11.291-38.382-14.039a115.726,115.726,0,0,0-18.424-2.813,92.4,92.4,0,0,0-17.973.508,86.949,86.949,0,0,0-17.229,4.146,123.054,123.054,0,0,0-17.5,7.75c-11.147,5.948-22.893,14.007-35.909,24.637-24.412,19.938-49.518,45.86-76.1,73.3-25.385,26.21-51.634,53.312-79.542,77.549a471.409,471.409,0,0,1-43.121,33.629c-7.572,5.176-15.156,9.939-22.541,14.157-7.782,4.445-15.6,8.434-23.252,11.858a222.389,222.389,0,0,1-24,9.16,192.649,192.649,0,0,1-24.792,6.058,176.666,176.666,0,0,1-25.607,2.551Q392.506,3649.252,390.328,3649.252Z" transform="translate(103.461 -3330.957)" fill="#eaeaea"/>
</svg>
