<svg xmlns="http://www.w3.org/2000/svg" width="1967.763" height="453.287" viewBox="0 0 1967.763 453.287">
  <path id="Tracé_2" data-name="Tracé 2" d="M-23.676,3661.261l-5.585-2.194c.743-1.892,75.874-189.855,210.932-243.6,54.86-21.832,112.423-18.928,171.089,8.63,36.687,17.233,71.2,34.482,104.585,51.163,187.266,93.579,322.569,161.192,492.972,55.48,73.44-45.56,130.76-111.292,181.332-169.287,90.208-103.449,168.115-192.79,300.618-135.59,80.032,34.549,123.205,117.835,164.957,198.379,67.477,130.171,131.211,253.122,339.227,177.462l2.051,5.639c-44.247,16.094-82.238,23.186-115.245,23.187-125.86,0-179.31-103.116-231.36-203.527-41.268-79.61-83.941-161.931-162.009-195.632-128.482-55.462-205.054,32.348-293.718,134.025-50.85,58.313-108.484,124.407-182.691,170.442-62.6,38.835-120.437,54.729-177.662,54.734-101.149.009-200.442-49.623-321.155-109.945-33.349-16.665-67.832-33.9-104.454-51.1-57.1-26.821-113.051-29.678-166.3-8.492C51.269,3473.8-22.942,3659.392-23.676,3661.261Z" transform="translate(29.261 -3207.974)" fill="#031b2e"/>
</svg>
